<svg xmlns="http://www.w3.org/2000/svg" xmlns:cc="http://web.resource.org/cc/" xmlns:svg="http://www.w3.org/2000/svg" xmlns:xlink="http://www.w3.org/1999/xlink" id="svg2" width="64" height="64"><defs id="defs4"><linearGradient id="linearGradient1363" x1="25.404" x2="35.542" y1="19.176" y2="49.069" gradientTransform="translate(-2.402975,4.759656e-3)" gradientUnits="userSpaceOnUse" xlink:href="#linearGradient2842"/><linearGradient id="linearGradient2900"><stop id="stop2902" offset="0" style="stop-color:#fff;stop-opacity:1"/><stop id="stop2904" offset="1" style="stop-color:#fff;stop-opacity:1"/></linearGradient><linearGradient id="linearGradient2842"><stop style="stop-color:#fff;stop-opacity:1" id="stop2844" offset="0"/><stop style="stop-color:#c8c8c8;stop-opacity:1" id="stop2846" offset="1"/></linearGradient><linearGradient id="linearGradient2814"><stop id="stop2816" offset="0" style="stop-color:#e6e6e6;stop-opacity:1"/><stop id="stop2818" offset="1" style="stop-color:#11661d;stop-opacity:0"/></linearGradient><linearGradient id="linearGradient2171"><stop style="stop-color:#fff;stop-opacity:1" id="stop2173" offset="0"/><stop style="stop-color:#a3a5ee;stop-opacity:0" id="stop2175" offset="1"/></linearGradient><linearGradient id="linearGradient2160"><stop id="stop2162" offset="0" style="stop-color:#d3cece;stop-opacity:1"/><stop id="stop2164" offset="1" style="stop-color:#474240;stop-opacity:1"/></linearGradient><linearGradient id="linearGradient1367"><stop id="stop1369" offset="0" style="stop-color:#f67e36;stop-opacity:1"/><stop id="stop1371" offset="1" style="stop-color:#602604;stop-opacity:1"/></linearGradient><linearGradient id="linearGradient1347"><stop style="stop-color:#f0da27;stop-opacity:1" id="stop1349" offset="0"/><stop style="stop-color:#bf4d09;stop-opacity:1" id="stop1351" offset="1"/></linearGradient><linearGradient id="linearGradient1315"><stop style="stop-color:#97ff82;stop-opacity:1" id="stop1317" offset="0"/><stop style="stop-color:#ceff24;stop-opacity:0" id="stop1319" offset="1"/></linearGradient><linearGradient id="linearGradient2122"><stop style="stop-color:#2edc32;stop-opacity:1" id="stop2124" offset="0"/><stop style="stop-color:#11661d;stop-opacity:1" id="stop2126" offset="1"/></linearGradient><linearGradient id="linearGradient1364"><stop style="stop-color:#236b0d;stop-opacity:1" id="stop1366" offset="0"/><stop style="stop-color:#0a2205;stop-opacity:1" id="stop1368" offset="1"/></linearGradient><radialGradient id="radialGradient1402" cx="21.96" cy="14.922" r="27.5" fx="21.96" fy="14.922" gradientTransform="matrix(1.211118e-16,1.330643,-1.347411,2.027373e-5,44.09678,-13.39507)" gradientUnits="userSpaceOnUse" xlink:href="#linearGradient1367"/><radialGradient id="radialGradient1404" cx="21.96" cy="14.922" r="27.5" fx="21.96" fy="14.922" gradientTransform="matrix(1.211118e-16,1.330643,-1.347411,2.027373e-5,44.09678,-13.39507)" gradientUnits="userSpaceOnUse" xlink:href="#linearGradient2122"/><linearGradient id="linearGradient1419" x1="74.911" x2="84.911" y1="32.362" y2="47.451" gradientUnits="userSpaceOnUse" xlink:href="#linearGradient1364"/><linearGradient id="linearGradient1421" x1="73.839" x2="76.875" y1="34.429" y2="43.714" gradientUnits="userSpaceOnUse" xlink:href="#linearGradient2122"/><linearGradient id="linearGradient1423" x1="72.946" x2="85" y1="35.589" y2="47.375" gradientUnits="userSpaceOnUse" xlink:href="#linearGradient1315"/><linearGradient id="linearGradient2177" x1="24.916" x2="39.817" y1="28.824" y2="49.099" gradientUnits="userSpaceOnUse" xlink:href="#linearGradient2171"/><radialGradient id="radialGradient2184" cx="21.96" cy="14.922" r="27.5" fx="21.96" fy="14.922" gradientTransform="matrix(9.909149e-17,1.088708,-1.102427,1.658760e-5,41.48828,-4.732338)" gradientUnits="userSpaceOnUse" xlink:href="#linearGradient2122"/><linearGradient id="linearGradient2189" x1="10.018" x2="63.488" y1="8.631" y2="63.66" gradientUnits="userSpaceOnUse" xlink:href="#linearGradient1364"/><linearGradient id="linearGradient1339" x1="24.916" x2="39.817" y1="28.824" y2="49.099" gradientUnits="userSpaceOnUse" xlink:href="#linearGradient2171"/><radialGradient id="radialGradient1343" cx="24.764" cy="16.362" r="27.5" fx="24.764" fy="16.362" gradientTransform="matrix(2.521415e-2,1.026125,-0.978137,2.404729e-2,38.83024,-3.575704)" gradientUnits="userSpaceOnUse" xlink:href="#linearGradient2122"/><linearGradient id="linearGradient1346" x1="10.018" x2="63.488" y1="8.631" y2="63.66" gradientUnits="userSpaceOnUse" xlink:href="#linearGradient1364"/><radialGradient id="radialGradient2812" cx="18.387" cy="14.047" r="27.5" fx="18.387" fy="14.047" gradientTransform="matrix(1.142398e-2,1.098850,-1.843995,1.878760e-2,52.15051,-5.667446)" gradientUnits="userSpaceOnUse" xlink:href="#linearGradient2814"/><linearGradient id="linearGradient2832" x1="10.018" x2="63.488" y1="8.631" y2="63.66" gradientTransform="translate(-2.841000e-3,-2.841000e-3)" gradientUnits="userSpaceOnUse" xlink:href="#linearGradient1364"/><linearGradient id="linearGradient2848" x1="-.567" x2="-.337" y1="22.651" y2="23.859" gradientUnits="userSpaceOnUse" xlink:href="#linearGradient2842"/><linearGradient id="linearGradient2864" x1="-.823" x2="-.337" y1="22.445" y2="23.859" gradientUnits="userSpaceOnUse" xlink:href="#linearGradient2842"/></defs><metadata id="metadata7"/><g id="layer1"><g id="g1354"><path id="path1373" d="M 32.000000,8.6306766 C 19.113097,8.6306766 8.6306766,19.113097 8.6306766,32.000000 C 8.6306766,44.886903 19.113097,55.369323 32.000000,55.369323 C 44.886903,55.369323 55.369323,44.886903 55.369323,32.000000 C 55.369323,19.113097 44.886903,8.6306766 32.000000,8.6306766 z" style="fill:url(#linearGradient1346);fill-opacity:1;stroke:none;stroke-width:2;stroke-linecap:round;stroke-linejoin:round;stroke-miterlimit:4;stroke-opacity:1"/><path id="path1339" d="M 54.500005,32.000000 C 54.500005,44.420003 44.420003,54.500005 32.000000,54.500005 C 19.579997,54.500005 9.4999950,44.420003 9.4999950,32.000000 C 9.4999950,19.579997 19.579997,9.4999950 32.000000,9.4999950 C 44.420003,9.4999950 54.500005,19.579997 54.500005,32.000000 z" style="fill:url(#radialGradient1343);fill-opacity:1;stroke:none;stroke-width:2;stroke-linecap:round;stroke-linejoin:round;stroke-miterlimit:4;stroke-opacity:1"/><path id="path1341" d="M 32.016991,9.1562500 C 22.574792,9.1562500 14.505423,14.865048 11.062500,22.968750 C 16.006322,25.801817 21.393258,27.855853 27.181339,27.593750 C 32.755311,27.279922 37.553510,23.530916 43.236968,23.812500 C 47.451058,23.716455 52.244330,25.294372 54.488550,29.000000 C 53.142630,17.846718 43.657640,9.1562500 32.016991,9.1562500 z" style="fill:url(#radialGradient2812);fill-opacity:1;stroke:none;stroke-width:2;stroke-linecap:round;stroke-linejoin:round;stroke-miterlimit:4;stroke-opacity:1"/><path id="path2827" d="M 32.000000,8.6250000 C 19.113098,8.6250000 8.6250000,19.113097 8.6250000,32.000000 C 8.6250000,44.886904 19.113097,55.375000 32.000000,55.375000 C 44.886904,55.375000 55.375000,44.886903 55.375000,32.000000 C 55.375000,19.113098 44.886903,8.6250000 32.000000,8.6250000 z M 32.000000,9.5000000 C 44.420004,9.4999998 54.500000,19.579997 54.500000,32.000000 C 54.499998,44.420004 44.420003,54.500000 32.000000,54.500000 C 19.579998,54.499998 9.5000000,44.420003 9.5000000,32.000000 C 9.5000000,19.579998 19.579997,9.5000000 32.000000,9.5000000 z" style="fill:url(#linearGradient2832);fill-opacity:1;stroke:none;stroke-width:2;stroke-linecap:round;stroke-linejoin:round;stroke-miterlimit:4;stroke-opacity:1"/><path id="text1353" d="M 32.556888,39.006317 C 32.692760,35.835967 33.100380,35.066018 35.908404,32.892064 C 39.395790,30.219911 39.803410,29.902873 40.120445,29.631129 C 41.705621,28.272407 42.611437,26.189029 42.611437,24.015074 C 42.611437,19.078386 38.625844,15.953318 32.285143,15.953318 C 26.306768,15.953318 22.094721,18.851931 22.094721,23.018677 C 22.094721,25.464376 23.906354,27.230718 26.397344,27.230718 C 28.707171,27.230718 30.292350,25.736121 30.292350,23.607457 C 30.292350,22.384608 29.794150,21.388209 28.843045,20.663558 C 28.027812,20.029488 27.982521,19.984196 27.982521,19.667161 C 27.982521,19.033091 28.978919,18.534892 30.382931,18.534892 C 33.100374,18.534892 34.640263,20.346525 34.640263,23.516876 C 34.640263,25.373795 33.960900,27.683628 32.828632,29.721710 C 30.337643,34.160201 29.975314,35.066023 29.975314,37.104105 C 29.975314,37.557012 30.020605,38.281665 30.111187,39.006317 L 32.556888,39.006317 M 31.424619,41.497309 C 29.069501,41.497309 27.167287,43.399523 27.167287,45.754641 C 27.167287,48.064467 29.069501,50.011973 31.379328,50.011973 C 33.779736,50.011973 35.681951,48.109758 35.681951,45.754641 C 35.681951,43.399523 33.779736,41.497309 31.424619,41.497309" style="font-size:45.290764px;font-style:normal;font-variant:normal;font-weight:700;font-stretch:normal;text-align:start;line-height:125%;writing-mode:lr-tb;text-anchor:start;fill:url(#linearGradient1363);fill-opacity:1;stroke:none;stroke-width:1px;stroke-linecap:butt;stroke-linejoin:miter;stroke-opacity:1;font-family:Century Schoolbook L"/></g></g></svg>