<svg xmlns="http://www.w3.org/2000/svg" xmlns:svg="http://www.w3.org/2000/svg" xmlns:xlink="http://www.w3.org/1999/xlink" id="svg2" width="128" height="128" version="1.0"><metadata id="metadata47"/><defs id="defs4"><linearGradient id="linearGradient39133"><stop id="stop39135" style="stop-color:#252525;stop-opacity:1" offset="0"/><stop id="stop39137" style="stop-color:#515151;stop-opacity:1" offset="0"/><stop id="stop39139" style="stop-color:#878787;stop-opacity:1" offset=".287"/><stop id="stop39141" style="stop-color:#000;stop-opacity:1" offset=".922"/><stop id="stop39143" style="stop-color:#fff;stop-opacity:.73786408" offset="1"/></linearGradient><linearGradient id="linearGradient39119"><stop id="stop39121" style="stop-color:#fff;stop-opacity:.82905984" offset="0"/><stop id="stop39123" style="stop-color:#fff;stop-opacity:0" offset="1"/></linearGradient><linearGradient id="linearGradient39106"><stop id="stop39108" style="stop-color:#fff;stop-opacity:1" offset="0"/><stop id="stop39110" style="stop-color:#a8a8a8;stop-opacity:0" offset="1"/></linearGradient><linearGradient id="linearGradient39094"><stop id="stop39096" style="stop-color:#000;stop-opacity:1" offset="0"/><stop id="stop39098" style="stop-color:#333;stop-opacity:1" offset="1"/></linearGradient><linearGradient id="linearGradient39062"><stop id="stop39064" style="stop-color:#252525;stop-opacity:1" offset="0"/><stop id="stop39086" style="stop-color:#515151;stop-opacity:1" offset=".211"/><stop id="stop39088" style="stop-color:#878787;stop-opacity:1" offset=".75"/><stop id="stop39090" style="stop-color:#6c6c6c;stop-opacity:1" offset=".875"/><stop id="stop39066" style="stop-color:#1e1e1e;stop-opacity:1" offset="1"/></linearGradient><linearGradient id="linearGradient39068" x1="4" x2="124" y1="40" y2="60" gradientUnits="userSpaceOnUse" xlink:href="#linearGradient39062"/><radialGradient id="radialGradient39100" cx="100.706" cy="96" r="60" fx="158.074" fy="95.718" gradientTransform="matrix(2.7837903e-8,-1,0.99999999,-2.1864248e-6,-32.000004,164.7061)" gradientUnits="userSpaceOnUse" xlink:href="#linearGradient39094"/><radialGradient id="radialGradient39104" cx="100.444" cy="34.364" r="32" fx="83.18" fy="34.229" gradientTransform="matrix(3.1472435e-6,1.0227273,-0.87499999,-9.5061964e-8,94.067865,-4.7272712)" gradientUnits="userSpaceOnUse" xlink:href="#linearGradient39106"/><radialGradient id="radialGradient39125" cx="76" cy="-2.773" r="48" fx="55.266" fy="-2.534" gradientTransform="matrix(0,0.83333324,-1.6666667,2.518705e-6,59.378243,-35.333302)" gradientUnits="userSpaceOnUse" xlink:href="#linearGradient39119"/><radialGradient id="radialGradient39131" cx="64.067" cy="63.713" r="60" fx="64.067" fy="63.713" gradientTransform="matrix(1.1333333,5.1768857e-8,5.2556881e-6,1.1666667,-8.6091298,-10.332226)" gradientUnits="userSpaceOnUse" xlink:href="#linearGradient39133"/><filter id="filter39153"><feGaussianBlur id="feGaussianBlur39155" stdDeviation="2.28"/></filter><filter id="filter39159"><feGaussianBlur id="feGaussianBlur39161" stdDeviation="1.68"/></filter></defs><g id="layer1" style="display:inline"><path id="path39151" d="M 29,4 C 15.147058,4 4,15.14706 4,29 l 0,70 c 0,13.85294 11.147058,25 25,25 l 70,0 c 13.85294,0 25,-11.14706 25,-25 l 0,-70 C 124,15.14706 112.85294,4 99,4 L 29,4 z" style="opacity:1;fill:#000;fill-opacity:1;stroke:none;filter:url(#filter39153)"/><path id="path39157" d="M 29,4 C 15.147058,4 4,15.14706 4,29 l 0,70 c 0,13.85294 11.147058,25 25,25 l 70,0 c 13.85294,0 25,-11.14706 25,-25 l 0,-70 C 124,15.14706 112.85294,4 99,4 L 29,4 z" style="opacity:1;fill:#000;fill-opacity:1;stroke:none;filter:url(#filter39159)"/><rect id="rect2573" width="120" height="120" x="4" y="0" ry="25.005" style="opacity:1;fill:url(#radialGradient39100);fill-opacity:1;stroke:none"/><path id="path39127" d="M 29,0 C 15.147058,0 4,11.14706 4,25 l 0,70 c 0,13.85294 11.147058,25 25,25 l 70,0 c 13.85294,0 25,-11.14706 25,-25 l 0,-70 C 124,11.14706 112.85294,0 99,0 L 29,0 z" style="opacity:.20512821;fill:url(#radialGradient39131);fill-opacity:1;stroke:none"/><path id="path39102" d="m 44,68 40,0 12,40 c -20,7.27273 -44,7.27273 -64,0 L 44,68 z" style="opacity:.53418801;fill:url(#radialGradient39104);fill-opacity:1;stroke:none"/><path id="rect39116" d="M 25.339207,12 C 52,8 76,8 102.66079,12 107.83471,12 112,16.165286 112,21.339207 L 116,52 C 100,73.339207 28,73.339207 12,52 L 16,21.339207 C 16,16.165286 20.165286,12 25.339207,12 z" style="opacity:.92307691;fill:url(#radialGradient39125);fill-opacity:1;stroke:none"/><path id="path39147" d="M 29,8 C 15.147058,8 4,19.14706 4,33 l 0,70 c 0,13.85294 11.147058,25 25,25 l 70,0 c 13.85294,0 25,-11.14706 25,-25 l 0,-70 C 124,19.14706 112.85294,8 99,8 L 29,8 z" style="opacity:.20512821;fill:#000;fill-opacity:1;stroke:none"/><path id="rect39029" d="M 29,0 C 15.147058,0 4,11.147058 4,25 l 0,70 c 0,13.85294 11.147058,25 25,25 l 70,0 c 13.85294,0 25,-11.14706 25,-25 l 0,-70 C 124,11.147058 112.85294,0 99,0 L 29,0 z m 0,4 70,0 c 11.70613,0 21,9.293869 21,21 l 0,70 c 0,11.70613 -9.29387,21 -21,21 l -70,0 C 17.293869,116 8,106.70613 8,95 L 8,25 C 8,13.293869 17.293869,4 29,4 z" style="opacity:1;fill:url(#linearGradient39068);fill-opacity:1;stroke:none"/><path id="path3351" d="M 66.35081,74.771345 A 36,36 0 1 1 54.34964,35.777782" transform="matrix(-0.16680323,0.53082142,-0.53082142,-0.16680323,103.31027,53.117897)" style="opacity:1;fill:none;stroke:#fff;stroke-width:21.56673813;stroke-linecap:round;stroke-miterlimit:4;stroke-opacity:1;stroke-dasharray:none"/><path id="path3353" d="m 36,56 a 4,4 0 1 1 -8,0 4,4 0 1 1 8,0 z" transform="matrix(1.4851301,0,0,1.4851301,16.475837,-23.948973)" style="opacity:1;fill:#fff;fill-opacity:1;stroke:none"/><path id="path2622" d="M 66.35081,74.771345 A 36,36 0 1 1 54.34964,35.777782" transform="matrix(-0.35033273,1.1148712,-1.1148712,-0.35033273,146.5624,46.88078)" style="opacity:1;fill:none;stroke:#fff;stroke-width:10.26852894;stroke-linecap:round;stroke-miterlimit:4;stroke-opacity:1;stroke-dasharray:none"/></g></svg>