<svg xmlns="http://www.w3.org/2000/svg" xmlns:svg="http://www.w3.org/2000/svg" xmlns:xlink="http://www.w3.org/1999/xlink" id="svg2" width="56" height="31" x="0" y="0" enable-background="new 0 0 72.833 46.667" version="1.1" viewBox="0 0 56 31" xml:space="preserve"><metadata id="metadata27"/><defs id="defs25"><filter id="filter3802" color-interpolation-filters="sRGB"/><linearGradient id="linearGradient4929" x1="30.565" x2="32.937" y1="-8.814" y2="32.716" gradientUnits="userSpaceOnUse" xlink:href="#SVGID_3_"/><linearGradient id="linearGradient5798" x1="30.565" x2="32.937" y1="-8.814" y2="32.716" gradientUnits="userSpaceOnUse" xlink:href="#SVGID_3_"/><linearGradient id="linearGradient5812" x1="30.565" x2="32.937" y1="-8.814" y2="32.716" gradientUnits="userSpaceOnUse" xlink:href="#SVGID_3_"/><filter id="filter6262" width="1.5" height="1.5" x="-.25" y="-.25" color-interpolation-filters="sRGB"><feGaussianBlur id="feGaussianBlur6264" in="SourceAlpha" result="blur" stdDeviation="2.5"/><feColorMatrix id="feColorMatrix6266" result="bluralpha" type="matrix" values="1 0 0 0 0 0 1 0 0 0 0 0 1 0 0 0 0 0 0.500000 0"/><feOffset id="feOffset6268" dx="2.7" dy="2.6" in="bluralpha" result="offsetBlur"/><feMerge id="feMerge6270"><feMergeNode id="feMergeNode6272" in="offsetBlur"/><feMergeNode id="feMergeNode6274" in="SourceGraphic"/></feMerge></filter></defs><g id="layer1" style="display:inline" transform="translate(5.2838057,-15.545371)"><g id="g3790" transform="matrix(0.8183832,0,0,0.8183832,65.304897,9.8747678)" style="filter:url(#filter6262)"><g id="g9" transform="translate(-91.018462,1.0687099)"><path style="fill:#6700ad" id="path11" d="M 54.997,12.151 C 50.083,9.132 43.29,7.266 35.791,7.266 c -7.5,0 -14.29,1.866 -19.204,4.885 -4.915,3.016 -7.956,7.184 -7.956,11.789 0,4.604 3.041,8.772 7.956,11.788 4.914,3.02 11.704,-4.271 19.204,-4.271 7.499,0 14.292,7.291 19.206,4.271 4.914,-3.016 7.955,-7.185 7.955,-11.788 0,-4.606 -3.041,-8.773 -7.955,-11.789 z M 24.996,24.318 c -2.698,0 -4.885,-0.922 -4.885,-2.061 0,-1.14 2.187,-2.063 4.885,-2.063 2.697,0 4.885,0.924 4.885,2.063 0,1.139 -2.188,2.061 -4.885,2.061 z m 21.501,0.191 c -2.686,0 -4.861,-0.856 -4.861,-1.912 0,-1.054 2.176,-1.911 4.861,-1.911 2.685,0 4.863,0.857 4.863,1.911 0,1.056 -2.178,1.912 -4.863,1.912 z"/><path style="fill:none;stroke:#ffb616;stroke-width:1.85353255" id="path13" d="M 54.997,12.151 C 50.083,9.132 43.29,7.266 35.791,7.266 c -7.5,0 -14.29,1.866 -19.204,4.885 -4.915,3.016 -7.956,7.184 -7.956,11.789 0,4.604 3.041,8.772 7.956,11.788 4.914,3.02 11.704,-4.271 19.204,-4.271 7.499,0 14.292,7.291 19.206,4.271 4.914,-3.016 7.955,-7.185 7.955,-11.788 0,-4.606 -3.041,-8.773 -7.955,-11.789 z M 24.996,24.318 c -2.698,0 -4.885,-0.922 -4.885,-2.061 0,-1.14 2.187,-2.063 4.885,-2.063 2.697,0 4.885,0.924 4.885,2.063 0,1.139 -2.188,2.061 -4.885,2.061 z m 21.501,0.191 c -2.686,0 -4.861,-0.856 -4.861,-1.912 0,-1.054 2.176,-1.911 4.861,-1.911 2.685,0 4.863,0.857 4.863,1.911 0,1.056 -2.178,1.912 -4.863,1.912 z"/></g><g id="Layer_2" transform="translate(-91.018462,1.0687099)"><linearGradient id="SVGID_3_" x1="30.565" x2="32.937" y1="-8.814" y2="32.716" gradientUnits="userSpaceOnUse"><stop id="stop17" style="stop-color:#fff;stop-opacity:.73" offset="0"/><stop id="stop19" style="stop-color:#fff;stop-opacity:0" offset="1"/></linearGradient><path style="fill:url(#linearGradient5812)" id="path21" d="m 54.1,15.361 c -0.924,1.078 -2.782,1.265 -3.857,1.06 C 38,14.083 22.75,12.75 16.027,23.031 14.858,24.819 11.992,25.39 10.293,23.887 8.631,22.417 13.105,15.804 17.646,13.033 22.194,10.252 28.474,8.53 35.41,8.53 c 6.936,0 13.215,1.722 17.756,4.502 0.731,0.442 1.627,1.52 0.934,2.329 z"/></g></g></g></svg>